<?xml version="1.0" encoding="UTF-8" standalone="no"?>
<!-- Created with Inkscape (http://www.inkscape.org/) -->

<svg
   width="120mm"
   height="120mm"
   viewBox="0 0 120 120"
   version="1.1"
   id="svg1"
   inkscape:version="1.1.2 (0a00cf5339, 2022-02-04)"
   sodipodi:docname="logo base blanco texto en trazo.svg"
   inkscape:export-filename="logo vectorizado simplificado alineado para exportar 100mm 100ppp.png"
   inkscape:export-xdpi="100"
   inkscape:export-ydpi="100"
   xmlns:inkscape="http://www.inkscape.org/namespaces/inkscape"
   xmlns:sodipodi="http://sodipodi.sourceforge.net/DTD/sodipodi-0.dtd"
   xmlns="http://www.w3.org/2000/svg"
   xmlns:svg="http://www.w3.org/2000/svg">
  <sodipodi:namedview
     id="namedview1"
     pagecolor="#ffffff"
     bordercolor="#000000"
     borderopacity="0.25"
     inkscape:showpageshadow="2"
     inkscape:pageopacity="0.0"
     inkscape:pagecheckerboard="0"
     inkscape:deskcolor="#d1d1d1"
     inkscape:document-units="mm"
     inkscape:zoom="1.1178319"
     inkscape:cx="82.302178"
     inkscape:cy="301.47646"
     inkscape:window-width="1920"
     inkscape:window-height="1000"
     inkscape:window-x="0"
     inkscape:window-y="0"
     inkscape:window-maximized="1"
     inkscape:current-layer="g1"
     inkscape:pageshadow="2"
     showgrid="false"
     inkscape:lockguides="false"
     showborder="true"
     showguides="false" />
  <defs
     id="defs1" />
  <g
     inkscape:label="Logo"
     inkscape:groupmode="layer"
     id="layer1"
     transform="matrix(0.89919704,0,0,0.89919704,5.6635752,10.079808)"
     style="stroke-width:0.999781;stroke-dasharray:none">
    <g
       id="g1"
       inkscape:label="Logotipo"
       transform="translate(-34.345688,-70.638059)"
       style="stroke-width:0.999781;stroke-dasharray:none">
      <path
         id="path679"
         style="fill:#ffffff;stroke-width:1.46603;stroke-dasharray:none"
         d="m 144.04787,66.189279 c -3.83449,-7.8e-5 -6.94294,3.108394 -6.94283,6.942839 1.6e-4,3.834245 3.10856,6.942405 6.94283,6.942327 1.78344,-9.95e-4 3.49811,-0.68826 4.78851,-1.919311 -2.51046,0.519621 -6.0495,-1.336901 -6.05373,-5.023003 0.006,-4.593003 4.6281,-5.287591 6.03113,-5.030846 0.007,0.0014 0.0151,0.0031 0.0227,0.0046 -1.29081,-1.230113 -3.0054,-1.916437 -4.7885,-1.916739 z"
         inkscape:label="Luna"
         sodipodi:nodetypes="ccccccccc" />
      <path
         style="fill:none;stroke:#ffffff;stroke-width:2.58509;stroke-dasharray:none"
         d="m 36.024064,114.70741 h 19.362629 v -13.71018 h 6.013241 v -2.766088 c 0.759331,-4.449334 5.243881,-4.402065 9.072935,-11.514992 3.999136,6.91868 8.193177,7.017355 8.966779,11.514992 v 2.766088 h 5.973111 v 13.71018 H 104.33446 V 87.046532 h -4.810592 v -4.329535 h 4.810592 c 0,0 -0.47473,-10.823844 7.15576,-14.912844 7.51022,4.20927 7.15575,14.912844 7.15575,14.912844 h 4.8106 v 4.329535 h -4.8106 v 20.445008 h 5.82081 v 3.24721 h 5.82081 v -3.24721 h 5.82083 v 3.24721 h 5.82081 v -3.24721 h 5.8208 v 3.24721 h 5.77272 v 0"
         id="path1"
         sodipodi:nodetypes="ccccccccccccccccccccccccccccccccc"
         inkscape:label="Nuevo sky" />
      <g
         id="g17"
         inkscape:label="Almunia"
         style="stroke-width:0.999781;stroke-dasharray:none;fill:#ffffff"
         transform="translate(0,4.707904)">
        <path
           d="m 141.25933,127.26657 v 40.39863 l 5.00446,2.68524 v -43.08387 c 0,0 -0.0471,-3.44752 2.72465,-3.44752 2.77171,0 2.72465,3.44752 2.72465,3.44752 v 13.27712 l -4.00496,2.2038 4.00496,2.2038 v 28.3025 l 5.00447,2.70498 v -48.6922 c 0,0 0.0312,-8.45198 -7.72912,-8.45198 -7.76032,0 -7.72911,8.45198 -7.72911,8.45198 z"
           style="display:inline;stroke-width:0.999781;stroke-dasharray:none;fill:#ffffff"
           id="path9-5-3-5"
           inkscape:label="A Fin"
           sodipodi:nodetypes="cccczccccccczc" />
        <g
           id="g16"
           inkscape:label="I"
           transform="translate(1.3911821e-6,0.28580993)"
           style="stroke-width:0.999781;stroke-dasharray:none;fill:#ffffff">
          <path
             d="m 136.25486,114.25738 -5.00447,2.71445 v 4.89326 l 5.00447,-2.66905 z"
             style="display:inline;stroke-width:0.999781;stroke-dasharray:none;fill:#ffffff"
             id="path15"
             inkscape:label="I punto"
             sodipodi:nodetypes="ccccc" />
          <path
             d="m 131.25039,123.96696 v 48.54837 l 5.00447,-2.68502 v -48.57673 z"
             style="display:inline;stroke-width:0.999781;stroke-dasharray:none;fill:#ffffff"
             id="path14"
             inkscape:label="I"
             sodipodi:nodetypes="ccccc" />
        </g>
        <path
           id="path9-5-3-1-3"
           style="display:inline;stroke-width:0.999781;stroke-dasharray:none;fill:#ffffff"
           inkscape:label="N gruesa"
           d="m 110.78769,118.81459 v 12.02435 11.68988 24.58431 l 5.00445,2.68555 v -27.26986 -11.68988 c 0,0 -0.0471,-3.4476 2.72463,-3.4476 2.77171,0 2.72463,3.4476 2.72463,3.4476 v 41.8631 l 5.00445,2.70452 v -44.56762 c 0,0 0.0312,-8.45205 -7.72908,-8.45205 -1.0443,0 -1.94346,0.15691 -2.72463,0.42183 v -1.32984 z" />
        <path
           d="m 105.78323,163.38275 v -36.27459 l -5.00446,-2.68524 v 38.95983 c 0,0 0.0471,3.44752 -2.724658,3.44752 -2.77171,0 -2.724653,-3.44752 -2.724653,-3.44752 v -41.86318 l -5.004465,-2.70498 v 44.56816 c 0,0 -0.03121,8.45198 7.729118,8.45198 7.760328,0 7.729118,-8.45198 7.729118,-8.45198 z"
           style="display:inline;stroke-width:0.999781;stroke-dasharray:none;fill:#ffffff"
           id="path9-5-3-1"
           inkscape:label="U"
           sodipodi:nodetypes="cccczcccczc" />
        <path
           d="m 85.320528,118.81459 -10.413449,5.55606 -10.716514,-5.55606 v 51.01558 l 5.004465,2.69263 v -46.16484 l 3.780882,2.03543 v 26.68087 l 3.808553,2.03404 0.160197,-28.56404 3.371401,-1.83384 v 50.9808 l 5.004465,-2.69263 z"
           style="display:inline;stroke-width:0.999781;stroke-dasharray:none;fill:#ffffff"
           id="path11"
           inkscape:label="M"
           sodipodi:nodetypes="cccccccccccccc" />
        <path
           d="m 54.181635,118.81459 v 55.72508 l 15.013395,8.15969 v -5.16461 l -10.008935,-5.58164 v -50.47408 z"
           style="display:inline;stroke-width:0.999781;stroke-dasharray:none;fill:#ffffff"
           id="path10"
           inkscape:label="L"
           sodipodi:nodetypes="ccccccc" />
        <path
           d="m 33.718934,127.26657 v 36.27459 l 5.004465,2.68524 v -38.95983 c 0,0 -0.04706,-3.44752 2.724653,-3.44752 2.77171,0 2.724653,3.44752 2.724653,3.44752 v 13.27712 l -4.004965,2.2038 4.004965,2.2038 v 24.17846 l 5.004465,2.70498 v -44.56816 c 0,0 0.03121,-8.45198 -7.729118,-8.45198 -7.760328,0 -7.729118,8.45198 -7.729118,8.45198 z"
           style="display:inline;stroke-width:0.999781;stroke-dasharray:none;fill:#ffffff"
           id="path9-5-3"
           inkscape:label="A Inicio"
           sodipodi:nodetypes="cccczccccccczc" />
      </g>
      <g
         aria-label="I.E.S."
         id="text1"
         style="font-size:18.047px;font-family:'Noto Sans HK';-inkscape-font-specification:'Noto Sans HK';stroke-width:1.11099;fill:#ffffff"
         inkscape:label="IES">
        <path
           d="m 45.219227,79.796585 h 2.670956 V 66.423757 h -2.670956 z"
           style="font-weight:bold;-inkscape-font-specification:'Noto Sans HK Bold';fill:#ffffff"
           id="path871" />
        <path
           d="m 52.456073,80.049243 c 0.956491,0 1.660324,-0.757974 1.660324,-1.732512 0,-0.992585 -0.703833,-1.732512 -1.660324,-1.732512 -0.938444,0 -1.642277,0.739927 -1.642277,1.732512 0,0.974538 0.703833,1.732512 1.642277,1.732512 z"
           style="font-weight:bold;-inkscape-font-specification:'Noto Sans HK Bold';fill:#ffffff"
           id="path873" />
        <path
           d="m 57.03999,79.796585 h 8.391855 v -2.237828 h -5.720899 v -3.573306 h 4.69222 v -2.237828 h -4.69222 v -3.086037 h 5.522382 V 66.423757 H 57.03999 Z"
           style="font-weight:bold;-inkscape-font-specification:'Noto Sans HK Bold';fill:#ffffff"
           id="path875" />
        <path
           d="m 69.420229,80.049243 c 0.956491,0 1.660324,-0.757974 1.660324,-1.732512 0,-0.992585 -0.703833,-1.732512 -1.660324,-1.732512 -0.938444,0 -1.642277,0.739927 -1.642277,1.732512 0,0.974538 0.703833,1.732512 1.642277,1.732512 z"
           style="font-weight:bold;-inkscape-font-specification:'Noto Sans HK Bold';fill:#ffffff"
           id="path877" />
        <path
           d="m 77.992534,80.049243 c 3.086037,0 4.908784,-1.858841 4.908784,-4.042528 0,-1.931029 -1.064773,-2.959708 -2.689003,-3.627447 l -1.750559,-0.739927 c -1.136961,-0.451175 -2.075405,-0.794068 -2.075405,-1.750559 0,-0.884303 0.739927,-1.407666 1.912982,-1.407666 1.100867,0 1.98517,0.397034 2.833379,1.100867 l 1.353525,-1.678372 c -1.08282,-1.100867 -2.634862,-1.714465 -4.186904,-1.714465 -2.70705,0 -4.620032,1.678371 -4.620032,3.862059 0,1.949076 1.353525,3.031896 2.70705,3.591353 l 1.786653,0.757974 c 1.191102,0.505316 2.003217,0.812115 2.003217,1.8047 0,0.938444 -0.739927,1.533995 -2.129546,1.533995 -1.173055,0 -2.436345,-0.595551 -3.392836,-1.479854 l -1.533995,1.840794 c 1.299384,1.245243 3.086037,1.949076 4.87269,1.949076 z"
           style="font-weight:bold;-inkscape-font-specification:'Noto Sans HK Bold';fill:#ffffff"
           id="path879" />
        <path
           d="m 86.546787,80.049243 c 0.956491,0 1.660324,-0.757974 1.660324,-1.732512 0,-0.992585 -0.703833,-1.732512 -1.660324,-1.732512 -0.938444,0 -1.642277,0.739927 -1.642277,1.732512 0,0.974538 0.703833,1.732512 1.642277,1.732512 z"
           style="font-weight:bold;-inkscape-font-specification:'Noto Sans HK Bold';fill:#ffffff"
           id="path881" />
      </g>
    </g>
  </g>
</svg>
